<?xml version="1.0" encoding="UTF-8"?>
<!DOCTYPE svg PUBLIC "-//W3C//DTD SVG 1.1//EN" "http://www.w3.org/Graphics/SVG/1.1/DTD/svg11.dtd">
<!-- Creator: CorelDRAW -->
<svg xmlns="http://www.w3.org/2000/svg" xml:space="preserve" width="210mm" height="297mm" version="1.1" style="shape-rendering:geometricPrecision; text-rendering:geometricPrecision; image-rendering:optimizeQuality; fill-rule:evenodd; clip-rule:evenodd"
viewBox="0 0 21000 29700"
 xmlns:xlink="http://www.w3.org/1999/xlink">
 <defs>
  <style type="text/css">
   <![CDATA[
    .fil0 {fill:black}
   ]]>
  </style>
 </defs>
 <g id="Layer_x0020_1">
  <metadata id="CorelCorpID_0Corel-Layer"/>
  <g id="_105553349466304">
   <path class="fil0" d="M14134.67 4079.32c141.21,84.31 254.7,175.46 360.57,302.49 17.06,20.31 34.14,40.62 51.71,61.55 206.06,262.62 243.83,538.39 219.32,867.67 -34.28,226.28 -78.69,450.35 -123.04,674.83 -13.26,68.36 -26.49,136.72 -39.69,205.08 -35.89,185.42 -72.19,370.74 -108.53,556.06 -38.34,195.77 -76.29,391.59 -114.29,587.42 -72.32,372.45 -144.98,744.82 -217.73,1117.19 -89.56,458.32 -178.74,916.71 -267.88,1375.1 -31.7,163 -63.41,326.02 -95.12,489.04 -7.73,39.76 -15.47,79.53 -23.44,120.5 -52.08,267.68 -104.27,535.34 -156.52,802.98 -75.8,388.35 -151.33,776.73 -226.63,1165.16 -21.83,112.52 -43.7,225.04 -65.57,337.55 -36.94,190.11 -73.67,380.24 -110.25,570.4 -13.84,71.82 -27.76,143.63 -41.74,215.42 -19.22,98.91 -38.23,197.86 -57.18,296.81 -5.71,29.11 -11.43,58.2 -17.32,88.18 -26.76,141.13 -50.36,275.74 -38.66,419.5 48.75,66.36 48.75,66.36 118.58,120.99 735.78,686.73 818.62,1802.12 888.09,2744.12 0.73,77.43 0.93,154.88 0,232.31 40.21,-1.35 80.44,-2.7 121.89,-4.09 282.36,-6.54 534.02,-7.83 802.94,91.05 93.54,33.37 176.29,58.11 275.4,67.9 73.57,-37.25 73.57,-37.25 137.94,-99.21 375.14,-303.79 851.09,-490.69 1333.34,-520.27 46.27,-3.07 46.27,-3.07 93.46,-6.2 642.63,-21.8 1263,181.54 1748.04,606.32 58.13,57.25 115.47,115.27 171.81,174.24 36.69,35.56 36.69,35.56 74.12,71.84 245.16,253.26 455.1,622.64 506.66,973.53 33.78,4.45 67.57,8.88 102.39,13.46 450.59,87.6 825.64,394.22 1101.78,749.4 370.94,552.47 472.2,1174.61 356.78,1825.62 -154.15,535.37 -482.94,990.5 -947.07,1299.92 -562.74,309.47 -1178.38,382.75 -1795.23,206.14 -96.34,-29.18 -96.34,-29.18 -173.77,-62 -127.68,-9.73 -187.92,68.91 -283.13,148.97 -622.8,494.8 -1357.44,649.81 -2145.04,565.33 -535.24,-86.48 -1182.77,-365.41 -1540.55,-789.16 -56.04,-56.63 -56.04,-56.63 -139.28,-41.59 -32.26,8.53 -64.49,17.06 -97.71,25.86 -479.04,100.75 -954.15,85.1 -1408.35,-108.89 -32.55,-22.52 -65.09,-45.03 -98.62,-68.22 -91.36,-58.7 -91.36,-58.7 -184.81,-27.98 -110.05,60.96 -218.08,124.25 -325.22,190.16 -1798.98,1104.53 -4121.32,967.97 -6101.61,509.48 -1393.35,-341.02 -2914.75,-953.09 -3751.23,-2191.48 -246.7,-408.86 -520.1,-862.16 -456.9,-1354.51 66.37,-189.07 181.15,-318.78 348.45,-425.9 141.52,-42.21 285.39,-66.67 430.74,-91.95 87.64,-16.44 175.27,-32.99 262.86,-49.61 45.28,-8.49 90.57,-16.96 137.22,-25.71 1972.34,-378.48 4018.68,-999.52 5557.61,-2349.37 35.67,-30.54 71.36,-61.1 108.14,-92.56 518.26,-454.66 931.92,-1013.47 1213.1,-1642.49 181.91,-405.91 458.39,-838.1 881.19,-1024.41 192.86,-86.85 322.2,-157.73 415.68,-352.62 50.98,-167.64 79.17,-339.41 108.25,-511.92 12.62,-65.91 25.41,-131.79 38.36,-197.63 34.67,-178.76 66.86,-357.89 98.63,-537.19 34.08,-189.76 70.45,-379.08 106.58,-568.47 68.44,-360.73 134.86,-721.81 200.55,-1083.04 73.4,-403.19 148.9,-805.99 224.64,-1208.75 115.71,-615.36 230.48,-1230.88 344.28,-1846.58 254.46,-1376.48 254.46,-1376.48 373.02,-1991.98 15.72,-81.88 31.27,-163.82 46.65,-245.76 20.37,-108.47 41.3,-216.78 62.41,-325.1 5.54,-30.12 11.07,-60.23 16.77,-91.26 67.38,-337.15 215.42,-650.94 501.78,-852 373.03,-216.03 811.55,-268.3 1210.38,-81.67zm-839.68 689.66c-156.46,191.14 -197.71,374.34 -241.91,614.18 -11.22,57.31 -11.22,57.31 -22.66,115.77 -24.84,127.54 -48.92,255.2 -73.01,382.88 -17.59,91.2 -35.24,182.38 -52.94,273.56 -42.73,220.86 -84.99,441.83 -127.02,662.84 -48.76,256.24 -98.06,512.37 -147.4,768.5 -65.97,342.47 -131.82,684.95 -197.32,1027.5 -5.07,26.49 -10.13,52.96 -15.35,80.25 -5.07,26.49 -10.13,52.98 -15.34,80.25 -117.72,615.56 -236.78,1230.84 -356.64,1845.97 -54.56,280.13 -108.92,560.28 -163.28,840.44 -43.11,222.14 -86.28,444.24 -129.64,666.34 -40.51,207.5 -80.72,415.04 -120.7,622.65 -14.68,75.89 -29.44,151.75 -44.32,227.59 -20.15,102.82 -39.95,205.69 -59.65,308.59 -5.98,30.07 -11.97,60.15 -18.13,91.13 -24.54,130.09 -38.3,207.56 4.3,335.35 35.08,4.68 70.17,9.38 106.31,14.21 70.76,9.73 70.76,9.73 142.93,19.67 46.27,6.29 92.53,12.57 140.2,19.05 113.82,18.28 224.11,39.41 336.37,64.75 46.44,10.45 46.44,10.45 93.83,21.1 23.38,5.32 46.76,10.63 70.87,16.09 159.91,-823.41 319.82,-1646.82 479.69,-2470.25 74.3,-382.57 148.58,-765.17 222.89,-1147.74 21.76,-111.99 43.5,-223.98 65.25,-335.97 14.41,-74.19 28.83,-148.4 43.24,-222.59 77.83,-400.75 155.61,-801.52 233.29,-1202.3 6.81,-35.18 13.63,-70.37 20.66,-106.62 40.42,-208.61 40.42,-208.61 80.85,-417.23 76.21,-393.37 152.7,-786.69 229.74,-1179.92 37.46,-191.22 74.71,-382.49 111.93,-573.75 16.53,-84.64 33.13,-169.25 49.83,-253.85 22.26,-112.73 44.21,-225.53 66.1,-338.35 6.35,-31.77 12.72,-63.56 19.27,-96.29 64.52,-330.17 64.52,-330.17 -20.81,-647.33 -101.54,-117.56 -179.46,-168.32 -324.26,-222.61 -173.08,0 -241.89,25.36 -387.17,116.14zm-2918.35 10129.51c-160.19,178.28 -160.19,178.28 -210.53,397.77 101.17,261.69 426.52,434.05 669.55,544.92 703.14,286.71 1511.01,228.47 2227.02,1.06 25.55,-12.77 51.1,-25.56 77.44,-38.72 -52.69,-417.87 -311.38,-778.11 -631.74,-1041.75 -709.38,-523.98 -1525.18,-547.51 -2131.74,136.72zm-604.96 1059.9c-29.65,45.74 -29.65,45.74 -59.9,92.41 -223.24,334.49 -472.41,626.88 -753.18,914.25 -21,21.94 -42,43.86 -63.63,66.47 -161.37,165.87 -332.31,309.94 -517.13,448.95 -29,21.85 -58.02,43.7 -87.9,66.19 -86.56,64.67 -173.48,128.79 -260.56,192.75 -22.73,16.92 -45.47,33.85 -68.88,51.28 -753.26,555.09 -1648.23,953.4 -2525.19,1265.12 -31.22,11.53 -62.43,23.06 -94.6,34.93 -1027.45,379.22 -2116.83,607.39 -3196.41,778.13 58.77,213.64 114.96,411.45 234.72,600.13 19.63,31.54 39.23,63.09 59.44,95.59 53.4,82.4 53.4,82.4 131.73,156.08 332.93,9.79 670.73,-71.82 994.57,-140.35 73.13,-15.39 73.13,-15.39 147.76,-31.11 935.7,-201.6 1874.55,-460.6 2725.81,-906.75 138.16,-51.46 211.46,-44.79 352.09,-5.89 72.6,41.15 72.6,41.15 116.15,116.16 29.92,269.32 29.92,269.32 -57.01,386.71 -136.23,108.44 -282.49,173.09 -441.48,242.45 -34.2,15.06 -68.41,30.13 -103.65,45.66 -1003.46,435.09 -2043.12,704.38 -3114.76,912.6 168.71,181.57 371.43,298.68 584.01,421.53 50.48,29.31 100.7,59.12 150.66,89.34 77.78,46.65 156.49,91.09 235.7,135.22 23.67,14.55 47.34,29.08 71.72,44.05 207.14,110.66 357.82,73.56 577.47,8.3 40.5,-13.27 81.01,-26.56 122.74,-40.24 39.28,-12.25 78.57,-24.52 119.03,-37.14 1070.42,-342.5 2185.95,-801.16 3094.54,-1472.85 38.13,-27.26 76.25,-54.51 115.54,-82.57 241.09,-175.62 463.88,-364.26 682.1,-567.46 71.28,-65.7 142.69,-127.32 218.69,-187.23 185.07,-159.84 335.27,-346.03 483.98,-539.48 18.76,-24.32 37.52,-48.63 56.83,-73.66 37.39,-48.7 74.5,-97.62 111.3,-146.76 167.22,-218.38 167.22,-218.38 306.15,-261.28 119.23,7.3 201.97,18.83 302.49,84.68 70.96,108.3 84.7,171.4 84.7,302.49 -241.35,719.6 -1112.31,1387.31 -1703.58,1819.73 -23.49,17.25 -46.96,34.5 -71.17,52.27 -949.33,690.64 -2004.25,1174.18 -3103.68,1573.87 118.4,65.54 227.52,97.94 359.95,124.62 40.03,8.1 80.05,16.21 121.29,24.55 42.42,8.27 84.86,16.54 128.57,25.05 43.44,8.55 86.89,17.1 131.65,25.91 333.02,64.19 663.12,117 1000.83,148.33 33.6,5.49 67.18,10.98 101.79,16.64 527.48,57.35 1170.43,-521.71 1563.07,-829.71 125.56,-105.63 245.05,-216.58 363.44,-330.16 72.45,-68.55 144.01,-131.81 221.11,-194.5 97.03,-81.89 176.67,-162.15 257.56,-259.37 111.71,-133.86 154.41,-179.38 333.94,-196.01 140.35,12.09 140.35,12.09 234.73,70.17 67.02,107.25 94.48,191.6 87.42,318.97 -60.84,197.91 -231.45,333.33 -375.39,474.75 -49.64,52.33 -49.64,52.33 -100.27,105.71 -225.07,234.33 -461.74,433.53 -722.48,626.28 -81.8,62.28 -153.18,122 -222.62,197.23 764.41,-26.58 1470.03,-258.31 2146.41,-604.96 28.68,-14.41 57.34,-28.83 86.89,-43.66 147.81,-71.88 147.81,-71.88 235.38,-202.72 13.15,-110.75 -26.4,-167.82 -80.28,-264.21 -152,-273.94 -195.75,-523.89 -193.59,-832.44 0.21,-32.63 0.43,-65.28 0.66,-98.9 4.64,-238 27.59,-444.79 127.59,-663.35 23.36,-52.17 23.36,-52.17 47.18,-105.41 169.09,-341.44 390.93,-604.31 736.85,-770.58 181.06,-100.15 232.38,-216.91 287.96,-408.95 7.17,-25.49 14.33,-50.98 21.7,-77.23 114.38,-405.93 348.48,-710.98 687.32,-960.89 50.89,-27.24 102.32,-53.59 154.88,-77.43 11.62,-407.57 -22.77,-797.08 -77.44,-1200.25 -24.91,4.68 -49.81,9.38 -75.47,14.21 -116.71,21.64 -233.55,42.51 -350.42,63.23 -38.24,6.82 -76.46,13.64 -115.86,20.68 -992.67,165.75 -1930.4,85.74 -2779.5,-479.55 -69.07,-51.31 -135.96,-105.54 -202.06,-160.62zm5846.37 2245.63c-23.36,27.54 -46.73,55.1 -70.78,83.49 -118.64,100.71 -200.63,108.45 -355.11,110.1 -131.44,-54.14 -131.44,-54.14 -263.77,-130.68 -359.41,-193.92 -627.1,-215.99 -1020.58,-104.51 -167.16,63.5 -290.3,151.33 -419.23,273.91 -21.47,20.36 -42.92,40.73 -65.04,61.69 -248.28,261.89 -332.54,580.4 -372.96,931.5 -34.81,118.86 -75.59,144.85 -181.48,207.05 -74.57,35.66 -149.63,70.27 -225.05,104.05 -314.11,155.34 -507.5,366.95 -637.64,692.84 -95,319.61 -97.56,649.9 52.49,951.61 195.4,329.77 476,588.56 848.92,690.72 348.73,37.56 626.56,9.92 937.68,-155.03 145.75,-52.2 230.29,-42.61 378.71,0.16 78.57,71.97 138.27,135.48 203.26,217.78 331.48,388.02 760.02,631.19 1268.02,711.44 587.11,35.62 1113.55,-53.31 1578.5,-436.94 65.85,-59.29 130.98,-119.42 195.09,-180.57 202.63,-189.62 202.63,-189.62 360.71,-214.92 174.7,22.53 294.14,82.37 446.92,166.82 270.28,138.08 616.55,122.7 906.55,58.37 407.67,-137.41 728.74,-401.15 935.72,-779.33 156.38,-340.28 193.44,-713.08 74.55,-1071.41 -176.61,-416.04 -442.76,-726.91 -863.43,-905.62 -127.87,-49.52 -250.61,-88.92 -384.76,-116.16 -113.73,-43.55 -113.73,-43.55 -179.07,-157.28 -18.1,-52.05 -34.9,-104.54 -50.8,-157.29 -151.97,-490.08 -407.85,-887.33 -851.8,-1161.53 -813.25,-380.09 -1568.18,-270.94 -2245.62,309.74z"/>
   <path class="fil0" d="M5529.6 6622.48c25.73,4.17 51.47,8.34 77.97,12.65 87.42,14.28 174.75,28.99 262.1,43.72 63.29,10.49 126.59,20.97 189.9,31.43 841.33,139.93 1681.12,289.15 2520.84,438.31 237.71,42.21 475.46,84.14 713.22,126 184.97,32.61 369.91,65.4 554.82,98.25 87.8,15.57 175.6,31.07 263.41,46.49 121.49,21.37 242.95,43 364.38,64.7 35.79,6.23 71.58,12.47 108.46,18.89 459.96,82.94 459.96,82.94 580.82,247.33 32.73,160.12 24.08,303.58 -53.24,447.67 -288.18,157.81 -707.28,26.65 -1012.45,-28.42 -51.55,-9.06 -103.1,-18.08 -154.67,-27.08 -138.92,-24.34 -277.74,-49.1 -416.57,-73.93 -145.78,-26.02 -291.62,-51.69 -437.45,-77.4 -244.65,-43.2 -489.26,-86.64 -733.83,-130.27 -282.38,-50.36 -564.83,-100.37 -847.32,-150.16 -272.44,-48.05 -544.87,-96.28 -817.28,-144.63 -115.63,-20.53 -231.29,-40.98 -346.96,-61.4 -136.16,-24.06 -272.31,-48.27 -408.43,-72.65 -73.53,-13.13 -147.11,-26.08 -220.69,-39.02 -44.07,-7.93 -88.13,-15.86 -133.53,-24.02 -38.12,-6.78 -76.22,-13.55 -115.5,-20.55 -168.44,-36.89 -305.12,-69.29 -436.41,-183.75 -72.35,-133.11 -72.64,-205.25 -45.67,-351.34 34.84,-101.68 83.99,-138.49 178.76,-185.87 141.2,-47.06 218.61,-29.11 365.32,-4.95z"/>
   <path class="fil0" d="M20109.3 14216.1c246.11,193.13 399.89,414.54 493.65,711.44 38.98,409.32 -3.41,745.28 -265.89,1075.01 -275.59,272.17 -577.96,356.2 -953.18,357.92 -321.15,-6.68 -544.31,-120.63 -779.73,-336.74 -241.85,-261.81 -327.73,-550.45 -323.05,-901.55 30.06,-330.24 185.66,-592.5 424.68,-816.55 392.64,-325.04 964.62,-360.79 1403.52,-89.53zm-1045.38 696.92c-97.75,134.99 -94.27,263.18 -77.44,425.89 74.02,153.95 135.01,220.09 280.71,309.73 175.44,46.8 291.65,40.8 454.93,-38.7 123.84,-127.03 188.7,-220.12 205.68,-396.86 -14.22,-170.76 -59.82,-245.87 -166.96,-377.5 -227.35,-151.56 -512.29,-130.28 -696.92,77.44z"/>
   <path class="fil0" d="M6612.22 10140.45c57.96,10.01 57.96,10.01 117.08,20.24 126.66,21.92 253.3,44.02 379.94,66.13 88.44,15.38 176.89,30.77 265.33,46.15 184.87,32.18 369.72,64.43 554.55,96.76 236.87,41.4 473.79,82.5 710.74,123.53 182.43,31.66 364.84,63.48 547.23,95.37 87.36,15.25 174.74,30.42 262.13,45.53 121.97,21.1 243.91,42.48 365.83,63.91 36.04,6.18 72.09,12.36 109.23,18.72 371.12,65.88 371.12,65.88 534.64,176.85 76.89,111.49 82.51,207.48 87.12,341.19 -38.72,108.9 -38.72,108.9 -116.16,193.6 -244.86,102.92 -444.1,64.86 -700.35,18.2 -42.39,-7.22 -84.8,-14.45 -128.48,-21.9 -139.75,-24.02 -279.32,-48.91 -418.91,-73.89 -97.24,-17.04 -194.48,-34.05 -291.72,-51.02 -203.61,-35.71 -407.14,-71.85 -610.62,-108.32 -234.9,-42.1 -469.95,-83.18 -705.13,-123.77 -226.71,-39.16 -453.27,-79.18 -679.78,-119.57 -96.19,-17.03 -192.42,-33.85 -288.69,-50.41 -134.52,-23.24 -268.84,-47.47 -403.15,-71.95 -39.79,-6.66 -79.58,-13.34 -120.57,-20.2 -218.37,-41.03 -355.5,-78.73 -492.31,-267.69 -26.54,-165.2 -19.37,-240.29 70.18,-382.33 233.87,-227.2 661.86,-65.91 951.87,-15.13z"/>
   <path class="fil0" d="M8008.36 8724.99c72.61,12.77 145.24,25.5 217.87,38.24 151.45,26.61 302.86,53.5 454.23,80.55 193.68,34.61 387.45,68.56 581.27,102.32 149.69,26.14 299.32,52.62 448.91,79.23 71.44,12.65 142.9,25.19 214.37,37.63 99.83,17.43 199.57,35.33 299.31,53.34 29.27,5.02 58.53,10.03 88.69,15.19 172.01,31.68 315.44,76.58 465.33,167.47 96.8,145.2 98.19,215.21 77.43,387.17 -75.01,113.73 -75.01,113.73 -193.59,193.58 -229.19,29.08 -461.07,-11.04 -686.42,-52.08 -31.79,-5.53 -63.56,-11.07 -96.31,-16.78 -103.88,-18.19 -207.69,-36.82 -311.5,-55.45 -72.73,-12.86 -145.45,-25.69 -218.18,-38.51 -151.91,-26.83 -303.79,-53.85 -455.64,-81.04 -194.31,-34.79 -388.68,-69.15 -583.1,-103.37 -150,-26.43 -299.94,-53.05 -449.91,-79.73 -71.66,-12.73 -143.32,-25.41 -215.01,-38.06 -100.18,-17.7 -200.32,-35.63 -300.44,-53.63 -29.4,-5.15 -58.78,-10.3 -89.06,-15.61 -383.22,-69.57 -383.22,-69.57 -536.37,-169.91 -73.52,-112.21 -80.12,-208.59 -84.7,-341.2 209.95,-459.87 975.93,-180.37 1372.82,-109.35z"/>
   <path class="fil0" d="M17326.46 12074.53c309.35,24.95 583.29,125.76 791.29,361.76 202.79,277.73 255.5,548.23 210.53,889.29 -92.15,326.72 -289.26,527.86 -580.76,696.92 -319.23,116.09 -584.35,96.76 -890.52,-38.7 -231.64,-128.35 -359.98,-287.51 -474.28,-527.54 -74.76,-336.44 -60.03,-648.2 125.83,-943.74 155.4,-189.91 367.14,-343.99 602.55,-418.63 71.87,-5.54 143.64,-12.19 215.36,-19.36zm-196 788.87c-86.5,107.23 -86.5,107.23 -104.06,229.88 33.18,159.25 85.27,216.7 217.79,309.74 149.15,2.58 232.25,-4.94 346.04,-104.05 53.69,-116.87 57.05,-194.44 41.13,-321.84 -35.67,-93.81 -35.67,-93.81 -116.14,-154.86 -170.94,-53.83 -235.95,-63.35 -384.76,41.13z"/>
   <path class="fil0" d="M17669.94 18487.45c246.37,193.92 407.52,452.89 464.76,761.94 -5.33,135.79 -24.41,209.64 -96.81,324.27 -144.65,94.02 -277.74,97.89 -445.25,62.91 -116.11,-100.43 -166.88,-217.44 -232.3,-353.3 -80.68,-166.7 -80.68,-166.7 -232.31,-266.18 -186.77,-28.22 -312.32,-20.08 -479.13,72.59 -33.54,27.15 -67.08,54.31 -101.63,82.27 -142.8,95.21 -260.08,103.86 -425.89,77.44 -127.88,-81.97 -150.43,-139.88 -193.6,-285.54 0,-181.16 34.33,-237.76 154.88,-372.65 469.16,-378.78 1074.56,-442.89 1587.28,-103.75z"/>
   <path class="fil0" d="M4732.94 14038.99c167.67,44.99 274.6,172.05 392.62,293.26 28.7,27.8 57.39,55.61 86.97,84.24 256.27,249.88 256.27,249.88 276.01,450.55 -2.62,130.06 -16.07,164.57 -89.54,280.7 -144.89,91.66 -210.75,86.67 -375.48,63.99 -166.27,-50.29 -265.2,-165.78 -379.52,-291.45 -23.62,-24.38 -47.25,-48.76 -71.6,-73.89 -107.54,-112.98 -200.9,-212.88 -259.92,-359.26 5.24,-146.69 19.65,-241.29 99.22,-365.41 107.74,-69.06 192.97,-89.62 321.24,-82.73z"/>
   <path class="fil0" d="M6287.09 15532.5c118.44,75.74 211.96,170.61 309.75,271.02 28.69,27.81 57.39,55.6 86.95,84.25 255.31,248.91 255.31,248.91 278.44,450.53 -2.1,143.91 -16.31,161.38 -116.16,280.72 -133.09,75.01 -133.09,75.01 -263.77,84.68 -192.66,-66.44 -306.99,-177.72 -450.08,-319.42 -25.46,-24 -50.91,-48.01 -77.13,-72.74 -265.68,-255.21 -265.68,-255.21 -275.87,-431.95 14.91,-124.75 25.21,-207.85 103.75,-308.37 139.82,-57.36 258.36,-75.44 404.12,-38.72z"/>
   <path class="fil0" d="M6751.7 14061.22c113.73,55.67 113.73,55.67 193.59,154.88 30.2,121.27 28.01,226.82 0,348.45 -85.21,127.99 -191.36,226.24 -304.91,329.11 -28.9,27.64 -57.78,55.3 -87.56,83.78 -252.65,239.46 -252.65,239.46 -432.7,259.84 -142.78,-14.53 -142.78,-14.53 -256.51,-94.38 -79.85,-113.73 -79.85,-113.73 -108.89,-241.98 42,-206.48 153.35,-307.13 300.06,-452.51 30.65,-31.6 61.29,-63.19 92.87,-95.75 309.85,-316.36 309.85,-316.36 604.05,-291.44z"/>
   <path class="fil0" d="M5244.89 15509.96c121.21,36.79 166.39,65.56 229.12,177.4 26.41,121.53 26.9,226.91 0,348.47 -85.09,128.03 -191.36,226.23 -304.89,329.09 -28.9,27.66 -57.8,55.3 -87.58,83.79 -252.78,239.58 -252.78,239.58 -413.33,257.42 -151.71,-14.88 -209.1,-62.15 -317.01,-166.97 -58.42,-116.85 -58.08,-179.01 -38.72,-309.74 77.15,-115.96 173.86,-210.49 271.03,-309.75 30.35,-34.93 60.7,-69.87 91.95,-105.86 306.25,-338.78 306.25,-338.78 569.43,-303.85z"/>
   <path class="fil0" d="M3886.59 12125.35c100.08,73.37 114.71,111.83 154.88,232.3 10.87,140.16 10.74,280.51 12.09,421.05 1.12,38.49 2.25,76.96 3.41,116.62 2.47,284.4 2.47,284.4 -88.86,435.41 -97.49,86.46 -137.98,108.69 -267.85,123.12 -151.7,-14.89 -209.08,-62.15 -317,-166.97 -76.92,-153.86 -49.26,-346.27 -50.81,-515.44 -1.13,-40.5 -2.25,-80.99 -3.41,-122.73 -2.47,-298.69 -2.47,-298.69 86.44,-452.43 157.22,-132.86 277.68,-112.39 471.11,-70.93z"/>
   <path class="fil0" d="M3809.16 10150.74c104.53,69.7 175.85,119.39 232.31,232.31 10.35,139.31 8.95,278.98 9.67,418.63 0.81,38.66 1.6,77.31 2.42,117.14 1.94,363.77 1.94,363.77 -128.25,509.61 -158.92,71.95 -233.61,90.84 -399.27,31.45 -104.06,-70.17 -104.06,-70.17 -181.49,-186.33 -17.91,-146.2 -14.34,-293.23 -14.53,-440.41 -0.94,-40.33 -1.89,-80.66 -2.87,-122.2 -1.14,-297 -1.14,-297 90.91,-450.39 132.11,-115.43 216.56,-126.92 391.1,-109.81z"/>
   <path class="fil0" d="M2700.87 11447.79c44.02,-1.1 88.03,-2.19 133.38,-3.34 322.48,-0.76 322.48,-0.76 481.25,112.23 90.09,138.33 96.7,213.02 67.76,375.07 -67.9,103.91 -67.9,103.91 -193.59,193.6 -162.56,28.01 -321.85,25.24 -486.39,21.77 -43.98,0.43 -87.99,0.85 -133.32,1.29 -323.55,-2.87 -323.55,-2.87 -437.29,-95.98 -77.6,-96.65 -98.5,-152.01 -104.53,-275.55 105.01,-367.53 337.17,-329.85 672.73,-329.09z"/>
   <path class="fil0" d="M4682.72 11445.36c66,-0.63 66,-0.63 133.33,-1.29 323.5,2.87 323.5,2.87 438.14,96.51 74.8,93.79 85.94,137.16 84.32,255.66 0.39,29.15 0.8,58.3 1.21,88.33 -28.7,119.82 -80.65,163.34 -175.44,240.78 -158.99,31.77 -319.74,23.34 -481.56,21.77 -43.84,0.92 -87.68,1.85 -132.86,2.8 -319.88,-0.56 -319.88,-0.56 -479.21,-114.26 -90.33,-138.23 -96.85,-212.84 -67.9,-374.92 168.52,-257.87 401.66,-221.23 679.97,-215.38z"/>
  </g>
 </g>
</svg>
  </g>
 </g>
</svg>
