<?xml version="1.0" encoding="UTF-8"?>
<!DOCTYPE svg PUBLIC "-//W3C//DTD SVG 1.1//EN" "http://www.w3.org/Graphics/SVG/1.1/DTD/svg11.dtd">
<svg xmlns="http://www.w3.org/2000/svg" version="1.1" width="512px" height="512px" style="shape-rendering:geometricPrecision; text-rendering:geometricPrecision; image-rendering:optimizeQuality; fill-rule:evenodd; clip-rule:evenodd" xmlns:xlink="http://www.w3.org/1999/xlink">
<g><path style="opacity:0.956" fill="#000000" d="M 107.5,-0.5 C 198.167,-0.5 288.833,-0.5 379.5,-0.5C 394.124,3.9584 403.624,13.6251 408,28.5C 408.667,65.8333 408.667,103.167 408,140.5C 401.994,146.33 396.994,145.663 393,138.5C 392.667,102.833 392.333,67.1667 392,31.5C 389.592,24.0908 384.758,18.9241 377.5,16C 333.031,14.849 288.531,14.349 244,14.5C 200.145,14.5105 156.312,14.8438 112.5,15.5C 112.667,39.8356 112.5,64.1689 112,88.5C 109.274,98.8937 102.774,105.727 92.5,109C 67.4407,108.847 42.6073,109.681 18,111.5C 17.3333,233.167 17.3333,354.833 18,476.5C 20.079,488.578 27.2457,495.078 39.5,496C 150.167,496.667 260.833,496.667 371.5,496C 381.902,494.931 388.735,489.431 392,479.5C 392.121,472.754 392.788,466.087 394,459.5C 399.033,455.221 403.7,455.554 408,460.5C 412.007,478.336 407.173,493.169 393.5,505C 389.123,508.025 384.456,510.192 379.5,511.5C 263.167,511.5 146.833,511.5 30.5,511.5C 14.0905,506.583 4.59048,495.583 2,478.5C 1.33333,355.5 1.33333,232.5 2,109.5C 3.17795,101.147 6.51128,93.8136 12,87.5C 39.8908,58.9414 68.3908,31.108 97.5,4C 100.893,2.37997 104.226,0.879972 107.5,-0.5 Z M 95.5,27.5 C 96.6623,46.6623 96.829,65.9956 96,85.5C 95.3102,88.196 93.8102,90.3626 91.5,92C 70.9226,93.6429 50.2559,93.9763 29.5,93C 51.6412,71.4056 73.6412,49.5723 95.5,27.5 Z"/></g>
<g><path style="opacity:0.933" fill="#000000" d="M 170.5,50.5 C 224.168,50.3333 277.834,50.5 331.5,51C 339.114,52.9471 343.614,57.7804 345,65.5C 345.667,75.5 345.667,85.5 345,95.5C 343.264,102.237 339.097,106.737 332.5,109C 294.5,109.667 256.5,109.667 218.5,109C 214.277,106.005 213.111,102.171 215,97.5C 216.214,95.9512 217.714,94.7845 219.5,94C 255.833,93.6667 292.167,93.3333 328.5,93C 329.833,84.3333 329.833,75.6667 328.5,67C 276.833,66.3333 225.167,66.3333 173.5,67C 172.516,75.7489 172.183,84.5822 172.5,93.5C 178.176,93.3339 183.843,93.5006 189.5,94C 194.48,96.8514 195.813,101.018 193.5,106.5C 192.5,107.333 191.5,108.167 190.5,109C 183.167,109.667 175.833,109.667 168.5,109C 163.606,107.314 160.106,104.147 158,99.5C 156.897,93.2442 156.397,86.9109 156.5,80.5C 156.418,73.771 156.918,67.1044 158,60.5C 160.887,55.4341 165.054,52.1008 170.5,50.5 Z"/></g>
<g><path style="opacity:0.929" fill="#000000" d="M 395.5,163.5 C 401.678,163.107 407.678,163.94 413.5,166C 420.121,169.964 426.121,174.631 431.5,180C 439.824,179.779 448.157,179.779 456.5,180C 466.085,182.583 472.918,188.416 477,197.5C 478.424,203.936 480.091,210.269 482,216.5C 487.077,220.624 492.577,224.124 498.5,227C 507.732,236.031 510.898,246.864 508,259.5C 504.885,264.619 502.718,270.119 501.5,276C 504.395,282.972 506.895,290.139 509,297.5C 509.698,306.404 507.365,314.404 502,321.5C 495.508,326.413 488.842,331.08 482,335.5C 480.091,341.731 478.424,348.064 477,354.5C 472.483,364.181 464.983,370.181 454.5,372.5C 453.667,396.493 453.167,420.493 453,444.5C 448.557,455.322 440.724,458.822 429.5,455C 419.833,449.167 410.167,443.333 400.5,437.5C 390.497,444.17 380.164,450.337 369.5,456C 359.758,457.88 352.924,454.38 349,445.5C 348.833,421.16 348.333,396.826 347.5,372.5C 336.555,370.059 328.722,363.725 324,353.5C 323.251,346.903 321.584,340.569 319,334.5C 314.545,331.023 309.712,328.189 304.5,326C 294.618,317.731 290.784,307.231 293,294.5C 295.386,288.237 297.886,282.07 300.5,276C 298.403,269.643 295.903,263.477 293,257.5C 290.71,244.699 294.543,234.199 304.5,226C 309.668,223.723 314.502,220.89 319,217.5C 321.584,211.431 323.251,205.097 324,198.5C 328.039,188.726 335.206,182.559 345.5,180C 353.839,179.858 362.172,179.858 370.5,180C 375.167,176 379.833,172 384.5,168C 388.157,166.178 391.824,164.678 395.5,163.5 Z M 397.5,179.5 C 401.463,179.089 405.13,179.922 408.5,182C 418.934,195.256 432.434,199.756 449,195.5C 454.911,195.621 459.245,198.288 462,203.5C 462.317,221.329 470.817,233.163 487.5,239C 492.705,243.939 494.205,249.772 492,256.5C 483.333,269.5 483.333,282.5 492,295.5C 494.174,301.66 493.007,307.16 488.5,312C 472.389,317.437 463.889,328.603 463,345.5C 461.594,350.573 458.428,354.073 453.5,356C 447.596,356.53 441.763,356.03 436,354.5C 424.438,355.391 415.271,360.558 408.5,370C 403.987,372.754 399.32,373.087 394.5,371C 390.5,367.333 386.5,363.667 382.5,360C 372.963,354.756 362.963,353.59 352.5,356.5C 347.259,356.129 343.092,353.795 340,349.5C 338.958,340.601 336.292,332.268 332,324.5C 327.108,319.3 321.275,315.466 314.5,313C 308.512,307.953 307.012,301.786 310,294.5C 316.529,285.19 317.862,275.19 314,264.5C 304.225,249.868 307.725,239.701 324.5,234C 329.05,231.117 332.55,227.284 335,222.5C 337.051,215.906 338.718,209.239 340,202.5C 342.287,199.538 345.12,197.371 348.5,196C 354.162,195.757 359.828,195.924 365.5,196.5C 371.677,196.941 377.343,195.441 382.5,192C 386.837,186.811 391.837,182.644 397.5,179.5 Z M 394.5,228.5 C 426.393,228.561 444.393,244.394 448.5,276C 445.221,304.78 429.221,320.613 400.5,323.5C 379.289,322.068 364.623,311.568 356.5,292C 349.293,258.912 361.959,237.745 394.5,228.5 Z M 364.5,370.5 C 367.253,371.022 369.92,371.856 372.5,373C 390.494,393.149 408.827,393.482 427.5,374C 430.605,372.132 433.938,370.965 437.5,370.5C 437.667,393.836 437.5,417.169 437,440.5C 428.167,435 419.333,429.5 410.5,424C 403.334,420.469 396.334,420.802 389.5,425C 381.249,430.042 373.082,435.208 365,440.5C 364.5,417.169 364.333,393.836 364.5,370.5 Z"/></g>
<g><path style="opacity:0.931" fill="#000000" d="M 63.5,180.5 C 129.501,180.333 195.501,180.5 261.5,181C 266.299,184.071 267.465,188.238 265,193.5C 264.097,194.701 262.931,195.535 261.5,196C 195.5,196.667 129.5,196.667 63.5,196C 58.7762,193.565 57.2762,189.731 59,184.5C 60.3968,182.93 61.8968,181.596 63.5,180.5 Z"/></g>
<g><path style="opacity:0.925" fill="#000000" d="M 393.5,212.5 C 435.677,212.679 459.344,233.679 464.5,275.5C 460.823,314.511 439.489,335.844 400.5,339.5C 371.957,337.783 352.123,323.783 341,297.5C 331.758,262.188 342.925,235.688 374.5,218C 380.817,215.675 387.15,213.842 393.5,212.5 Z M 394.5,228.5 C 361.959,237.745 349.293,258.912 356.5,292C 364.623,311.568 379.289,322.068 400.5,323.5C 429.221,320.613 445.221,304.78 448.5,276C 444.393,244.394 426.393,228.561 394.5,228.5 Z"/></g>
<g><path style="opacity:0.932" fill="#000000" d="M 62.5,233.5 C 128.834,233.333 195.168,233.5 261.5,234C 266.752,237.086 267.752,241.253 264.5,246.5C 263.335,247.584 262.002,248.417 260.5,249C 195.167,249.667 129.833,249.667 64.5,249C 59.0945,247.02 57.2611,243.186 59,237.5C 60.3756,236.295 61.5423,234.962 62.5,233.5 Z"/></g>
<g><path style="opacity:0.933" fill="#000000" d="M 65.5,285.5 C 130.168,285.333 194.834,285.5 259.5,286C 267.421,289.605 268.421,294.605 262.5,301C 195.833,301.667 129.167,301.667 62.5,301C 58.7885,298.487 57.6218,294.987 59,290.5C 60.5631,287.977 62.7298,286.31 65.5,285.5 Z"/></g>
<g><path style="opacity:0.932" fill="#000000" d="M 63.5,338.5 C 129.168,338.333 194.834,338.5 260.5,339C 266.042,341.602 267.542,345.769 265,351.5C 264.097,352.701 262.931,353.535 261.5,354C 195.5,354.667 129.5,354.667 63.5,354C 58.3106,351.087 57.1439,346.92 60,341.5C 61.1451,340.364 62.3117,339.364 63.5,338.5 Z"/></g>
<g><path style="opacity:0.928" fill="#000000" d="M 64.5,415.5 C 97.835,415.333 131.168,415.5 164.5,416C 171.663,419.994 172.33,424.994 166.5,431C 131.833,431.667 97.1667,431.667 62.5,431C 58.2468,427.58 57.4135,423.413 60,418.5C 61.4087,417.219 62.9087,416.219 64.5,415.5 Z"/></g>
</svg>
