<?xml version="1.0" encoding="UTF-8"?>
<!DOCTYPE svg PUBLIC "-//W3C//DTD SVG 1.1//EN" "http://www.w3.org/Graphics/SVG/1.1/DTD/svg11.dtd">
<svg xmlns="http://www.w3.org/2000/svg" version="1.1" width="512px" height="512px" style="shape-rendering:geometricPrecision; text-rendering:geometricPrecision; image-rendering:optimizeQuality; fill-rule:evenodd; clip-rule:evenodd" xmlns:xlink="http://www.w3.org/1999/xlink">
<g><path style="opacity:0.962" fill="#000000" d="M 197.5,-0.5 C 263.833,-0.5 330.167,-0.5 396.5,-0.5C 396.5,27.1667 396.5,54.8333 396.5,82.5C 369.831,82.3334 343.165,82.5 316.5,83C 296.333,99.8333 276.167,116.667 256,133.5C 255.5,116.503 255.333,99.5033 255.5,82.5C 236.167,82.5 216.833,82.5 197.5,82.5C 197.5,54.8333 197.5,27.1667 197.5,-0.5 Z M 214.5,16.5 C 269.167,16.5 323.833,16.5 378.5,16.5C 378.5,32.8333 378.5,49.1667 378.5,65.5C 355.164,65.3334 331.831,65.5 308.5,66C 296.667,75.8333 284.833,85.6667 273,95.5C 272.5,85.5056 272.334,75.5056 272.5,65.5C 253.167,65.5 233.833,65.5 214.5,65.5C 214.5,49.1667 214.5,32.8333 214.5,16.5 Z"/></g>
<g><path style="opacity:0.946" fill="#000000" d="M 230.5,32.5 C 236.167,32.5 241.833,32.5 247.5,32.5C 247.5,38.1667 247.5,43.8333 247.5,49.5C 241.833,49.5 236.167,49.5 230.5,49.5C 230.5,43.8333 230.5,38.1667 230.5,32.5 Z"/></g>
<g><path style="opacity:0.959" fill="#000000" d="M 263.5,32.5 C 285.833,32.5 308.167,32.5 330.5,32.5C 330.5,38.1667 330.5,43.8333 330.5,49.5C 308.167,49.5 285.833,49.5 263.5,49.5C 263.5,43.8333 263.5,38.1667 263.5,32.5 Z"/></g>
<g><path style="opacity:0.892" fill="#000000" d="M 345.5,32.5 C 351.5,32.5 357.5,32.5 363.5,32.5C 363.5,38.1667 363.5,43.8333 363.5,49.5C 357.5,49.5 351.5,49.5 345.5,49.5C 345.5,43.8333 345.5,38.1667 345.5,32.5 Z"/></g>
<g><path style="opacity:0.94" fill="#000000" d="M 511.5,494.5 C 511.5,500.167 511.5,505.833 511.5,511.5C 340.833,511.5 170.167,511.5 -0.5,511.5C -0.5,505.833 -0.5,500.167 -0.5,494.5C 24.1667,494.5 48.8333,494.5 73.5,494.5C 73.5,450.833 73.5,407.167 73.5,363.5C 67.8333,363.5 62.1667,363.5 56.5,363.5C 56.5,346.5 56.5,329.5 56.5,312.5C 67.5,312.5 78.5,312.5 89.5,312.5C 89.1471,299.458 89.6471,286.458 91,273.5C 94.3437,262.823 101.177,255.323 111.5,251C 123.385,247.572 135.218,244.072 147,240.5C 147.667,235.833 147.667,231.167 147,226.5C 139.372,218.578 134.372,209.244 132,198.5C 131.333,186.833 131.333,175.167 132,163.5C 140.635,133.54 160.469,120.373 191.5,124C 207.817,127.99 219.65,137.49 227,152.5C 232.608,170.718 232.942,189.052 228,207.5C 224.902,214.701 220.569,221.035 215,226.5C 214.172,231.202 214.338,235.869 215.5,240.5C 228.933,244.358 242.266,248.525 255.5,253C 264.781,259.055 270.448,267.555 272.5,278.5C 287.822,279.666 303.156,279.833 318.5,279C 332.833,264.667 347.167,250.333 361.5,236C 344.048,228.879 333.548,216.046 330,197.5C 329.333,186.5 329.333,175.5 330,164.5C 338.353,133.497 358.519,119.997 390.5,124C 412.158,130.136 424.992,144.303 429,166.5C 429.861,178.21 429.527,189.877 428,201.5C 425.812,210.842 421.312,218.842 414.5,225.5C 427.221,234.966 432.221,247.632 429.5,263.5C 440.5,263.5 451.5,263.5 462.5,263.5C 462.667,301.168 462.5,338.835 462,376.5C 457.723,404.943 441.556,422.277 413.5,428.5C 415.833,450.495 418.166,472.495 420.5,494.5C 450.833,494.5 481.167,494.5 511.5,494.5 Z M 175.5,140.5 C 195.017,139.2 207.517,147.867 213,166.5C 213.667,176.167 213.667,185.833 213,195.5C 207.012,214.92 193.846,223.42 173.5,221C 159.559,216.397 151.392,206.897 149,192.5C 148.333,184.833 148.333,177.167 149,169.5C 151.823,154.183 160.656,144.517 175.5,140.5 Z M 373.5,140.5 C 392.554,139.262 405.054,147.595 411,165.5C 411.667,175.833 411.667,186.167 411,196.5C 404.95,215.202 392.116,223.368 372.5,221C 360.106,217.606 351.939,209.773 348,197.5C 345.776,185.421 346.11,173.421 349,161.5C 353.783,150.385 361.95,143.385 373.5,140.5 Z M 196.5,236.5 C 197.851,239.772 197.684,243.106 196,246.5C 186.707,256.795 177.04,257.128 167,247.5C 165.684,244.312 165.184,240.978 165.5,237.5C 176.076,240.47 186.41,240.137 196.5,236.5 Z M 384.5,239.5 C 389.914,239.02 393.414,241.354 395,246.5C 395.216,249.853 394.216,252.853 392,255.5C 373.167,274.333 354.333,293.167 335.5,312C 305.167,312.667 274.833,312.667 244.5,312C 237.833,307.333 237.833,302.667 244.5,298C 271.5,297.667 298.5,297.333 325.5,297C 344.757,277.24 364.424,258.074 384.5,239.5 Z M 150.5,257.5 C 155.859,262.367 161.859,266.533 168.5,270C 177.979,273.543 187.312,273.21 196.5,269C 201.603,265.734 206.27,261.9 210.5,257.5C 222.131,261.099 233.798,264.599 245.5,268C 249.98,270.478 252.98,274.145 254.5,279C 235.566,277.933 224.566,286.6 221.5,305C 222.167,307.333 222.833,309.667 223.5,312C 184.835,312.5 146.168,312.667 107.5,312.5C 107.333,301.162 107.5,289.828 108,278.5C 109.833,272.667 113.667,268.833 119.5,267C 130.037,264.096 140.37,260.929 150.5,257.5 Z M 410.5,257.5 C 411.664,291.664 411.831,325.998 411,360.5C 408.5,369.667 402.667,375.5 393.5,378C 369.836,378.5 346.169,378.667 322.5,378.5C 322.5,373.5 322.5,368.5 322.5,363.5C 330.5,363.5 338.5,363.5 346.5,363.5C 346.333,350.829 346.5,338.162 347,325.5C 366.667,305.833 386.333,286.167 406,266.5C 408.06,263.714 409.56,260.714 410.5,257.5 Z M 429.5,280.5 C 434.5,280.5 439.5,280.5 444.5,280.5C 444.667,313.502 444.5,346.502 444,379.5C 439.5,396 429,406.5 412.5,411C 382.502,411.5 352.502,411.667 322.5,411.5C 322.5,406.5 322.5,401.5 322.5,396.5C 345.502,396.667 368.502,396.5 391.5,396C 413.341,392.826 425.841,380.326 429,358.5C 429.5,332.502 429.667,306.502 429.5,280.5 Z M 74.5,330.5 C 159.5,330.5 244.5,330.5 329.5,330.5C 329.5,335.5 329.5,340.5 329.5,345.5C 244.5,345.5 159.5,345.5 74.5,345.5C 74.5,340.5 74.5,335.5 74.5,330.5 Z M 90.5,363.5 C 161.833,363.5 233.167,363.5 304.5,363.5C 304.5,368.5 304.5,373.5 304.5,378.5C 246.833,378.5 189.167,378.5 131.5,378.5C 131.5,384.5 131.5,390.5 131.5,396.5C 189.167,396.5 246.833,396.5 304.5,396.5C 304.5,429.167 304.5,461.833 304.5,494.5C 298.132,494.83 291.798,494.496 285.5,493.5C 280.294,482.922 274.961,472.422 269.5,462C 221.497,461.167 173.497,461.333 125.5,462.5C 120.294,473.078 114.961,483.578 109.5,494C 103.175,494.5 96.8421,494.666 90.5,494.5C 90.5,461.833 90.5,429.167 90.5,396.5C 98.8333,396.5 107.167,396.5 115.5,396.5C 115.5,390.5 115.5,384.5 115.5,378.5C 107.167,378.5 98.8333,378.5 90.5,378.5C 90.5,373.5 90.5,368.5 90.5,363.5 Z M 322.5,429.5 C 336.167,429.5 349.833,429.5 363.5,429.5C 365.434,451.173 367.434,472.839 369.5,494.5C 353.833,494.5 338.167,494.5 322.5,494.5C 322.5,472.833 322.5,451.167 322.5,429.5 Z M 380.5,429.5 C 385.833,429.5 391.167,429.5 396.5,429.5C 398.434,451.173 400.434,472.839 402.5,494.5C 397.5,494.5 392.5,494.5 387.5,494.5C 385.232,472.816 382.898,451.149 380.5,429.5 Z M 137.5,478.5 C 177.839,478.167 218.172,478.5 258.5,479.5C 260.833,484.167 263.167,488.833 265.5,493.5C 220.17,494.667 174.837,494.833 129.5,494C 132.307,488.885 134.974,483.718 137.5,478.5 Z"/></g>
</svg>
