<?xml version="1.0" encoding="UTF-8"?>
<!DOCTYPE svg PUBLIC "-//W3C//DTD SVG 1.1//EN" "http://www.w3.org/Graphics/SVG/1.1/DTD/svg11.dtd">
<svg xmlns="http://www.w3.org/2000/svg" version="1.1" width="512px" height="512px" style="shape-rendering:geometricPrecision; text-rendering:geometricPrecision; image-rendering:optimizeQuality; fill-rule:evenodd; clip-rule:evenodd" xmlns:xlink="http://www.w3.org/1999/xlink">
<g><path style="opacity:0.936" fill="#000000" d="M 310.5,-0.5 C 315.833,-0.5 321.167,-0.5 326.5,-0.5C 340.035,4.55525 347.368,14.3886 348.5,29C 333.758,107.378 318.758,185.711 303.5,264C 303.667,264.833 303.833,265.667 304,266.5C 319.044,281.263 327.044,299.263 328,320.5C 328.984,329.159 329.817,337.826 330.5,346.5C 340.834,345.424 350.668,347.09 360,351.5C 387.336,330.409 415.503,329.242 444.5,348C 455.199,356.566 462.532,367.4 466.5,380.5C 496.452,391.308 509.952,412.642 507,444.5C 498.581,475.907 478.081,490.74 445.5,489C 440.012,488.504 434.845,487.004 430,484.5C 403.022,507.257 373.856,510.424 342.5,494C 336.989,489.819 331.489,485.652 326,481.5C 310.016,486.749 294.849,485.082 280.5,476.5C 251.072,495.987 218.572,505.321 183,504.5C 138.896,504.081 97.0623,494.248 57.5,475C 35.5597,463.06 19.0597,445.893 8,423.5C 4.42254,416.395 3.75588,409.062 6,401.5C 7.83333,398.333 10.3333,395.833 13.5,394C 51.7942,388.177 88.7942,377.844 124.5,363C 149.017,352.001 170.851,337.168 190,318.5C 195.717,311.784 201.05,304.784 206,297.5C 210.558,287.383 215.891,277.716 222,268.5C 228.598,261.37 236.265,255.703 245,251.5C 259.872,174.14 274.872,96.8065 290,19.5C 293.419,9.24715 300.252,2.58048 310.5,-0.5 Z M 316.5,16.5 C 324.801,16.6359 329.468,20.8026 330.5,29C 315.895,104.129 301.562,179.296 287.5,254.5C 280.042,252.042 272.375,250.542 264.5,250C 277.856,175.21 292.023,100.377 307,25.5C 308.775,20.888 311.942,17.888 316.5,16.5 Z M 257.5,267.5 C 282.103,267.938 298.436,279.772 306.5,303C 306.167,303.5 305.833,304 305.5,304.5C 285.808,311.418 266.141,311.584 246.5,305C 240.192,301.926 234.692,297.76 230,292.5C 234.517,279.154 243.683,270.82 257.5,267.5 Z M 219.5,308.5 C 238.866,324.762 261.199,330.929 286.5,327C 294.617,326.036 302.617,324.536 310.5,322.5C 311.226,330.488 311.893,338.488 312.5,346.5C 312.167,348.833 311.833,351.167 311.5,353.5C 298.312,361.522 290.312,373.189 287.5,388.5C 265.538,400.756 256.038,419.423 259,444.5C 260.333,451.17 262.833,457.337 266.5,463C 255.477,471.343 243.144,477.343 229.5,481C 220.641,483.533 211.641,484.866 202.5,485C 216.218,475.619 228.385,464.452 239,451.5C 241,441.836 237.167,437.669 227.5,439C 218.219,447.61 208.885,456.277 199.5,465C 190.506,471.499 181.173,477.499 171.5,483C 168.795,484.872 165.795,485.705 162.5,485.5C 145.594,484.071 128.927,481.238 112.5,477C 147.815,465.016 179.815,447.349 208.5,424C 217.735,415.435 226.235,406.268 234,396.5C 236.515,393.158 238.348,389.491 239.5,385.5C 237.487,377.994 232.821,375.494 225.5,378C 209.006,400.161 189.006,418.494 165.5,433C 139.533,447.712 112.2,459.212 83.5,467.5C 71.3835,462.278 60.0501,455.778 49.5,448C 78.5349,443.076 106.535,434.742 133.5,423C 137.577,421.213 141.41,419.046 145,416.5C 148.736,408.496 146.402,403.496 138,401.5C 105.724,416.646 71.8908,426.646 36.5,431.5C 34.0884,431.594 32.255,430.594 31,428.5C 27.3638,422.894 24.5305,416.894 22.5,410.5C 68.1493,403.783 111.483,389.95 152.5,369C 172.93,357.853 191.097,343.686 207,326.5C 211.802,320.878 215.969,314.878 219.5,308.5 Z M 398.5,352.5 C 427.341,352.51 445.174,366.51 452,394.5C 458.836,397.118 465.669,399.951 472.5,403C 489.602,415.641 494.102,431.808 486,451.5C 471.864,472.242 453.697,476.742 431.5,465C 429.167,464.333 426.833,464.333 424.5,465C 420.534,467.964 416.867,471.297 413.5,475C 390.577,490.604 367.91,490.271 345.5,474C 341.465,470.3 337.798,466.3 334.5,462C 332.246,460.85 329.913,460.516 327.5,461C 312.455,469.287 298.288,468.121 285,457.5C 271.964,440.986 272.797,425.153 287.5,410C 293.114,406.946 298.614,403.779 304,400.5C 305.264,379.075 316.43,366.741 337.5,363.5C 345.595,364.382 352.928,367.215 359.5,372C 361.167,372.667 362.833,372.667 364.5,372C 370.422,367.356 376.422,362.689 382.5,358C 387.74,355.534 393.073,353.7 398.5,352.5 Z"/></g>
<g><path style="opacity:0.935" fill="#000000" d="M 103.5,66.5 C 152.851,75.1365 202.185,83.9699 251.5,93C 256.833,98.3333 256.833,103.667 251.5,109C 248.167,109.667 244.833,109.667 241.5,109C 194.481,100.775 147.481,92.4412 100.5,84C 95.5285,80.4729 94.3618,75.9729 97,70.5C 99.0129,68.7518 101.18,67.4185 103.5,66.5 Z"/></g>
<g><path style="opacity:0.932" fill="#000000" d="M 143.5,118.5 C 175.631,122.688 207.631,127.855 239.5,134C 246.214,135.59 248.714,139.756 247,146.5C 245.2,150.235 242.2,151.902 238,151.5C 206.436,146.378 174.936,140.878 143.5,135C 136.865,129.369 136.865,123.869 143.5,118.5 Z"/></g>
<g><path style="opacity:0.932" fill="#000000" d="M 118.5,155.5 C 157.216,162.008 195.882,168.842 234.5,176C 241.999,184.165 240.499,189.999 230,193.5C 192.237,186.511 154.404,179.678 116.5,173C 111.391,169.634 110.224,165.134 113,159.5C 114.5,157.531 116.333,156.198 118.5,155.5 Z"/></g>
<g><path style="opacity:0.904" fill="#000000" d="M 59.5,158.5 C 64.814,157.74 68.6473,159.74 71,164.5C 71.6667,171.833 71.6667,179.167 71,186.5C 69.7116,190.578 66.8782,192.912 62.5,193.5C 58.6588,192.837 55.8255,190.837 54,187.5C 53.3333,179.833 53.3333,172.167 54,164.5C 55.3597,161.977 57.193,159.977 59.5,158.5 Z"/></g>
<g><path style="opacity:0.938" fill="#000000" d="M 24.5,192.5 C 32.84,192.334 41.1733,192.5 49.5,193C 54.0685,195.541 55.5685,199.375 54,204.5C 53.1667,206.667 51.6667,208.167 49.5,209C 41.1667,209.667 32.8333,209.667 24.5,209C 18.069,203.561 18.069,198.061 24.5,192.5 Z"/></g>
<g><path style="opacity:0.94" fill="#000000" d="M 75.5,192.5 C 83.84,192.334 92.1733,192.5 100.5,193C 105.833,198.333 105.833,203.667 100.5,209C 92.1667,209.667 83.8333,209.667 75.5,209C 70.391,205.634 69.2243,201.134 72,195.5C 73.1451,194.364 74.3117,193.364 75.5,192.5 Z"/></g>
<g><path style="opacity:0.898" fill="#000000" d="M 60.5,208.5 C 65.9565,208.026 69.4565,210.359 71,215.5C 71.6667,222.833 71.6667,230.167 71,237.5C 67.9598,243.368 63.4598,244.868 57.5,242C 55.9512,240.786 54.7845,239.286 54,237.5C 53.3333,229.833 53.3333,222.167 54,214.5C 55.4361,211.558 57.6028,209.558 60.5,208.5 Z"/></g>
<g><path style="opacity:0.935" fill="#000000" d="M 411.5,208.5 C 428.796,208.801 438.463,217.468 440.5,234.5C 437.756,254.394 426.423,262.561 406.5,259C 390.118,250.527 385.618,237.693 393,220.5C 397.706,214.075 403.872,210.075 411.5,208.5 Z M 412.5,226.5 C 420.168,226.332 423.335,229.999 422,237.5C 417.333,244.167 412.667,244.167 408,237.5C 406.776,232.626 408.276,228.959 412.5,226.5 Z"/></g>
<g><path style="opacity:0.894" fill="#000000" d="M 83.5,259.5 C 86.9783,259.184 90.3117,259.684 93.5,261C 98,265.5 102.5,270 107,274.5C 110.699,286.465 106.532,290.965 94.5,288C 90,283.5 85.5,279 81,274.5C 77.5066,268.805 78.3399,263.805 83.5,259.5 Z"/></g>
<g><path style="opacity:0.917" fill="#000000" d="M 134.5,259.5 C 144.212,258.709 148.045,263.042 146,272.5C 140.833,277.667 135.667,282.833 130.5,288C 120.426,291.553 115.926,288.053 117,277.5C 122.365,270.969 128.198,264.969 134.5,259.5 Z"/></g>
<g><path style="opacity:0.937" fill="#000000" d="M 462.5,259.5 C 484.453,257.796 496.786,267.796 499.5,289.5C 496.223,311.255 483.557,320.755 461.5,318C 445.867,312.229 438.701,301.062 440,284.5C 442.824,271.848 450.324,263.514 462.5,259.5 Z M 464.5,277.5 C 476.275,275.783 481.775,280.783 481,292.5C 476.923,300.725 470.756,302.892 462.5,299C 455.422,291.06 456.088,283.894 464.5,277.5 Z"/></g>
<g><path style="opacity:0.918" fill="#000000" d="M 95.5,297.5 C 105.658,296.157 109.825,300.49 108,310.5C 102.833,315.667 97.6667,320.833 92.5,326C 83.0495,328.884 78.5495,325.384 79,315.5C 84.3377,309.33 89.8377,303.33 95.5,297.5 Z"/></g>
<g><path style="opacity:0.896" fill="#000000" d="M 121.5,297.5 C 124.978,297.184 128.312,297.684 131.5,299C 136,303.5 140.5,308 145,312.5C 148.733,320.419 146.399,325.419 138,327.5C 135.679,327.091 133.513,326.257 131.5,325C 127.333,320.833 123.167,316.667 119,312.5C 115.281,306.607 116.115,301.607 121.5,297.5 Z"/></g>
<g><path style="opacity:0.916" fill="#000000" d="M 398.5,368.5 C 418.603,367.037 430.936,376.037 435.5,395.5C 433.659,402.924 428.992,405.424 421.5,403C 418.591,399.626 416.424,395.793 415,391.5C 411.212,386.847 406.378,385.347 400.5,387C 397.228,388.608 394.228,390.608 391.5,393C 384.088,395.134 379.754,392.467 378.5,385C 379.584,379.58 382.584,375.58 387.5,373C 391.157,371.178 394.824,369.678 398.5,368.5 Z"/></g>
</svg>
